<svg width="191" height="23" viewBox="0 0 191 23" fill="none" xmlns="http://www.w3.org/2000/svg">
<path d="M19.6 22L19.57 9.4L13.39 19.78H11.2L5.05 9.67V22H0.49V0.999999H4.51L12.37 14.05L20.11 0.999999H24.1L24.16 22H19.6ZM45.4023 18.1V22H29.1423V0.999999H45.0123V4.9H33.9723V9.46H43.7223V13.24H33.9723V18.1H45.4023ZM63.4007 11.17H67.8407V19.69C66.7007 20.55 65.3807 21.21 63.8807 21.67C62.3807 22.13 60.8707 22.36 59.3507 22.36C57.1707 22.36 55.2107 21.9 53.4707 20.98C51.7307 20.04 50.3607 18.75 49.3607 17.11C48.3807 15.45 47.8907 13.58 47.8907 11.5C47.8907 9.42 48.3807 7.56 49.3607 5.92C50.3607 4.26 51.7407 2.97 53.5007 2.05C55.2607 1.11 57.2407 0.64 59.4407 0.64C61.2807 0.64 62.9507 0.949999 64.4507 1.57C65.9507 2.19 67.2107 3.09 68.2307 4.27L65.1107 7.15C63.6107 5.57 61.8007 4.78 59.6807 4.78C58.3407 4.78 57.1507 5.06 56.1107 5.62C55.0707 6.18 54.2607 6.97 53.6807 7.99C53.1007 9.01 52.8107 10.18 52.8107 11.5C52.8107 12.8 53.1007 13.96 53.6807 14.98C54.2607 16 55.0607 16.8 56.0807 17.38C57.1207 17.94 58.3007 18.22 59.6207 18.22C61.0207 18.22 62.2807 17.92 63.4007 17.32V11.17ZM86.1852 17.5H76.4352L74.5752 22H69.5952L78.9552 0.999999H83.7552L93.1452 22H88.0452L86.1852 17.5ZM84.6552 13.81L81.3252 5.77L77.9952 13.81H84.6552ZM93.6909 11.68H102.181V15.43H93.6909V11.68ZM112.683 22.36C111.023 22.36 109.413 22.14 107.853 21.7C106.313 21.24 105.073 20.65 104.133 19.93L105.783 16.27C106.683 16.93 107.753 17.46 108.993 17.86C110.233 18.26 111.473 18.46 112.713 18.46C114.093 18.46 115.113 18.26 115.773 17.86C116.433 17.44 116.763 16.89 116.763 16.21C116.763 15.71 116.563 15.3 116.163 14.98C115.783 14.64 115.283 14.37 114.663 14.17C114.063 13.97 113.243 13.75 112.203 13.51C110.603 13.13 109.293 12.75 108.273 12.37C107.253 11.99 106.373 11.38 105.633 10.54C104.913 9.7 104.553 8.58 104.553 7.18C104.553 5.96 104.883 4.86 105.543 3.88C106.203 2.88 107.193 2.09 108.513 1.51C109.853 0.929999 111.483 0.64 113.403 0.64C114.743 0.64 116.053 0.799999 117.333 1.12C118.613 1.44 119.733 1.9 120.693 2.5L119.193 6.19C117.253 5.09 115.313 4.54 113.373 4.54C112.013 4.54 111.003 4.76 110.343 5.2C109.703 5.64 109.383 6.22 109.383 6.94C109.383 7.66 109.753 8.2 110.493 8.56C111.253 8.9 112.403 9.24 113.943 9.58C115.543 9.96 116.853 10.34 117.873 10.72C118.893 11.1 119.763 11.7 120.483 12.52C121.223 13.34 121.593 14.45 121.593 15.85C121.593 17.05 121.253 18.15 120.573 19.15C119.913 20.13 118.913 20.91 117.573 21.49C116.233 22.07 114.603 22.36 112.683 22.36ZM141.174 18.1V22H124.914V0.999999H140.784V4.9H129.744V9.46H139.494V13.24H129.744V18.1H141.174ZM164.301 0.999999V22H160.311L149.841 9.25V22H145.041V0.999999H149.061L159.501 13.75V0.999999H164.301ZM183.099 17.5H173.349L171.489 22H166.509L175.869 0.999999H180.669L190.059 22H184.959L183.099 17.5ZM181.569 13.81L178.239 5.77L174.909 13.81H181.569Z" fill="white"/>
</svg>
